<?xml version="1.0" encoding="utf-8"?>
<svg xmlns="http://www.w3.org/2000/svg" xmlns:svg="http://www.w3.org/2000/svg" version="1.1" viewBox="0 0 1400 440">
	<title>The titlepage for the Standard Ebooks edition of The Way We Live Now, by Anthony Trollope</title>
	<g aria-label="THE WAY">
		<path d="m 471.29312,68.245613 h 18.33919 V 130 h 17.59064 V 68.245613 h 18.33918 V 52.807016 h -54.26901 z"/>
		<path d="m 554.48757,99.029239 h 24.88889 V 130 H 596.9671 V 52.807016 H 579.37646 V 83.590642 H 554.48757 V 52.807016 H 536.89693 V 130 h 17.59064 z"/>
		<path d="M 657.3326,52.807016 H 613.16886 V 130 H 657.3326 V 114.5614 H 630.7595 V 99.029239 h 25.4503 V 83.590642 H 630.7595 V 68.245613 h 26.5731 z"/>
		<path d="m 754.21711,130 h 19.46199 l 21.9883,-77.192984 h -19.46199 l -13.19298,52.959064 h -0.46784 L 748.5095,52.807016 h -13.28655 l -14.03508,52.959064 h -0.46784 L 707.52705,52.807016 H 687.97149 L 709.9598,130 h 19.55555 l 12.35088,-43.321638 z"/>
		<path d="M 835.50219,52.807016 H 819.22148 L 788.06359,130 h 18.90058 l 5.70761,-15.4386 h 29.38011 L 847.7595,130 h 18.90058 z m 0.5614,46.31579 h -17.40351 l 8.60819,-22.45614 h 0.18713 z"/>
		<path d="m 857.75219,52.807016 28.44444,42.5731 V 130 h 17.59065 V 95.380116 l 28.44444,-42.5731 h -21.1462 L 894.99195,77.508771 878.89839,52.807016 Z"/>
	</g>
	<g aria-label="WE LIVE NOW">
		<path d="m 403.40204,230 h 19.46199 l 21.98831,-77.19298 h -19.46199 l -13.19299,52.95906 h -0.46783 l -14.03509,-52.95906 h -13.28655 l -14.03509,52.95906 h -0.46783 L 356.71198,152.80702 H 337.15643 L 359.14473,230 h 19.55556 l 12.35087,-43.32164 z"/>
		<path d="M 498.23537,152.80702 H 454.07163 V 230 h 44.16374 v -15.4386 h -26.5731 v -15.53216 h 25.4503 v -15.4386 h -25.4503 v -15.34503 h 26.5731 z"/>
		<path d="M 561.52339,152.80702 H 543.93274 V 230 h 44.16375 v -15.4386 h -26.5731 z"/>
		<path d="M 619.3377,152.80702 H 601.74706 V 230 h 17.59064 z"/>
		<path d="m 651.72076,230 h 13.84795 l 32.37427,-77.19298 h -19.83626 l -19.46199,50.71345 -19.46199,-50.71345 h -19.83625 z"/>
		<path d="M 750.02631,152.80702 H 705.86257 V 230 h 44.16374 v -15.4386 h -26.5731 v -15.53216 h 25.4503 v -15.4386 h -25.4503 v -15.34503 h 26.5731 z"/>
		<path d="m 813.31433,182.09357 h 0.18713 L 844.19152,230 h 17.59064 v -77.19298 h -17.59064 v 47.90643 h -0.18713 L 813.31433,152.80702 H 795.72368 V 230 h 17.59065 z"/>
		<path d="m 874.56434,191.35672 c 0,22.54971 16.09357,40.04679 38.92398,40.04679 22.17543,0 38.83041,-17.49708 38.83041,-40.04679 0,-22.5497 -17.40351,-39.95321 -38.83041,-39.95321 -21.23977,0 -38.92398,17.40351 -38.92398,39.95321 z m 18.99415,0 c 0,-11.50877 6.36257,-23.01754 19.92983,-23.01754 13.66081,0 19.83625,11.50877 19.83625,23.01754 0,11.50878 -5.80117,23.01755 -19.83625,23.01755 -14.40936,0 -19.92983,-11.50877 -19.92983,-23.01755 z"/>
		<path d="m 1021.3845,230 h 19.462 l 21.9883,-77.19298 h -19.462 l -13.193,52.95906 h -0.4678 l -14.0351,-52.95906 h -13.2865 l -14.03512,52.95906 h -0.46783 L 974.69447,152.80702 H 955.13891 L 977.12721,230 h 19.55556 l 12.35083,-43.32164 z"/>
	</g>
	<g aria-label="ANTHONY TROLLOPE">
		<path d="M 312.47917,332.10526 H 300.26864 L 276.90022,390 h 14.17544 l 4.2807,-11.57895 h 22.03509 L 321.67215,390 h 14.17544 z m 0.42105,34.73685 H 299.84759 L 306.30373,350 h 0.14035 z"/>
		<path d="m 356.23027,354.07018 h 0.14035 L 379.38816,390 h 13.19298 v -57.89474 h -13.19298 v 35.92983 h -0.14035 L 356.23027,332.10526 H 343.03729 V 390 h 13.19298 z"/>
		<path d="m 398.9386,343.68421 h 13.75439 V 390 h 13.19298 v -46.31579 h 13.75438 V 332.10526 H 398.9386 Z"/>
		<path d="m 462.58444,366.77193 h 18.66667 V 390 h 13.19298 v -57.89474 h -13.19298 v 23.08772 H 462.58444 V 332.10526 H 449.39146 V 390 h 13.19298 z"/>
		<path d="m 505.2489,361.01754 c 0,16.91228 12.07018,30.03509 29.19298,30.03509 16.63158,0 29.12281,-13.12281 29.12281,-30.03509 0,-16.91228 -13.05263,-29.96491 -29.12281,-29.96491 -15.92982,0 -29.19298,13.05263 -29.19298,29.96491 z m 14.24561,0 c 0,-8.63157 4.77193,-17.26315 14.94737,-17.26315 10.24562,0 14.87719,8.63158 14.87719,17.26315 0,8.63158 -4.35087,17.26316 -14.87719,17.26316 -10.80702,0 -14.94737,-8.63158 -14.94737,-17.26316 z"/>
		<path d="m 587.57895,354.07018 h 0.14035 L 610.73684,390 h 13.19298 v -57.89474 h -13.19298 v 35.92983 h -0.14035 L 587.57895,332.10526 H 574.38596 V 390 h 13.19299 z"/>
		<path d="m 624.74232,332.10526 21.33334,31.92983 V 390 h 13.19298 v -25.96491 l 21.33333,-31.92983 h -15.85965 l -12.07017,18.52632 -12.07018,-18.52632 z"/>
		<path d="m 704.8432,343.68421 h 13.75438 V 390 h 13.19298 v -46.31579 h 13.75439 V 332.10526 H 704.8432 Z"/>
		<path d="M 755.29606,332.10526 V 390 h 13.19298 V 367.12281 L 786.17325,390 h 16.77193 l -19.92982,-23.92982 c 7.08772,-2.24562 11.85965,-8.07018 11.85965,-16.77193 0,-11.36842 -8.14035,-17.19299 -18.8772,-17.19299 z m 13.19298,25.68421 v -15.15789 h 1.54386 c 4.98246,0 10.94737,0.35088 10.94737,7.57895 0,7.22807 -5.96491,7.57894 -10.94737,7.57894 z"/>
		<path d="m 808.00108,361.01754 c 0,16.91228 12.07018,30.03509 29.19298,30.03509 16.63158,0 29.12281,-13.12281 29.12281,-30.03509 0,-16.91228 -13.05263,-29.96491 -29.12281,-29.96491 -15.92982,0 -29.19298,13.05263 -29.19298,29.96491 z m 14.24562,0 c 0,-8.63157 4.77193,-17.26315 14.94736,-17.26315 10.24562,0 14.8772,8.63158 14.8772,17.26315 0,8.63158 -4.35088,17.26316 -14.8772,17.26316 -10.80701,0 -14.94736,-8.63158 -14.94736,-17.26316 z"/>
		<path d="M 890.33114,332.10526 H 877.13816 V 390 h 33.12281 v -11.57895 h -19.92983 z"/>
		<path d="M 934.94186,332.10526 H 921.74888 V 390 h 33.12281 v -11.57895 h -19.92983 z"/>
		<path d="m 963.76317,361.01754 c 0,16.91228 12.07017,30.03509 29.19298,30.03509 16.63155,0 29.12285,-13.12281 29.12285,-30.03509 0,-16.91228 -13.0527,-29.96491 -29.12285,-29.96491 -15.92983,0 -29.19298,13.05263 -29.19298,29.96491 z m 14.24561,0 c 0,-8.63157 4.77193,-17.26315 14.94737,-17.26315 10.24565,0 14.87715,8.63158 14.87715,17.26315 0,8.63158 -4.3508,17.26316 -14.87715,17.26316 -10.80702,0 -14.94737,-8.63158 -14.94737,-17.26316 z"/>
		<path d="M 1032.9002,332.10526 V 390 h 13.193 v -21.47368 h 7.9298 c 11.2982,0 19.7895,-6.66667 19.7895,-18.5965 0,-11.99999 -8.4913,-17.82456 -19.7895,-17.82456 z M 1046.0932,358 v -15.36842 h 3.7193 c 5.1929,0 10.1052,1.75439 10.1052,7.7193 0,5.89473 -4.9123,7.64912 -10.1052,7.64912 z"/>
		<path d="m 1117.761,332.10526 h -33.1228 V 390 h 33.1228 v -11.57895 h -19.9299 v -11.64912 h 19.0878 v -11.57895 h -19.0878 v -11.50877 h 19.9299 z"/>
	</g>
</svg>
